<svg xmlns="http://www.w3.org/2000/svg" viewBox="0 0 24 24" fill="none" stroke="currentColor" stroke-width="2" stroke-linecap="round" stroke-linejoin="round">
  <!-- Heart shape representing care and wellness -->
  <path d="M12 21.35l-1.45-1.32C5.4 15.36 2 12.28 2 8.5 2 5.42 4.42 3 7.5 3c1.74 0 3.41.81 4.5 2.09C13.09 3.81 14.76 3 16.5 3 19.58 3 22 5.42 22 8.5c0 3.78-3.4 6.86-8.55 11.54L12 21.35z" fill="#eb6f92" stroke="none"/>
  <!-- Subtle lotus/flower element representing holistic healing -->
  <path d="M12 7c2-2 4-2 6-1s2.5 3 1.5 5c-1 2-3 3-5.5 3-2.5 0-4.5-1-5.5-3s-.5-4 1.5-5 4-1 6 1z" fill="#ebbcba" stroke="none"/>
</svg>
