<svg xmlns="http://www.w3.org/2000/svg" xmlns:xlink="http://www.w3.org/1999/xlink" width="500" zoomAndPan="magnify" viewBox="0 0 375 374.999991" height="500" preserveAspectRatio="xMidYMid meet" version="1.0"><defs><g/></defs><g fill="#ecc8c7" fill-opacity="1"><g transform="translate(0.0000045, 178.279919)"><g><path d="M 6.578125 0.734375 C 4.429688 0.734375 3.359375 0.125 3.359375 -1.09375 C 3.359375 -2.039062 3.953125 -2.515625 5.140625 -2.515625 L 7.5625 -2.28125 C 9.539062 -2.28125 10.875 -3.378906 11.5625 -5.578125 C 12.125 -7.460938 12.40625 -10.828125 12.40625 -15.671875 L 12.40625 -50.5625 C 12.40625 -55.40625 12.171875 -58.578125 11.703125 -60.078125 C 11.242188 -61.578125 10.691406 -62.597656 10.046875 -63.140625 C 9.410156 -63.691406 8.582031 -63.96875 7.5625 -63.96875 L 5.140625 -63.765625 C 3.953125 -63.765625 3.359375 -64.242188 3.359375 -65.203125 C 3.359375 -66.421875 4.265625 -67.03125 6.078125 -67.03125 C 7.890625 -67.03125 9.472656 -66.894531 10.828125 -66.625 C 12.179688 -66.363281 13.515625 -66.234375 14.828125 -66.234375 C 18.316406 -66.234375 21.21875 -66.398438 23.53125 -66.734375 C 27.019531 -67.222656 31.03125 -67.46875 35.5625 -67.46875 C 40.09375 -67.46875 44.609375 -66.660156 49.109375 -65.046875 C 53.609375 -63.429688 57.472656 -61.144531 60.703125 -58.1875 C 67.585938 -51.882812 71.03125 -43.609375 71.03125 -33.359375 C 71.03125 -23.640625 67.65625 -15.550781 60.90625 -9.09375 C 53.914062 -2.375 44.753906 0.984375 33.421875 0.984375 C 30.679688 0.984375 28.023438 0.867188 25.453125 0.640625 C 20.679688 0.210938 17.222656 0 15.078125 0 Z M 20.171875 -22.78125 C 20.171875 -16.914062 20.316406 -11.460938 20.609375 -6.421875 C 24.992188 -4.148438 29.921875 -3.015625 35.390625 -3.015625 C 39.378906 -3.015625 43.515625 -3.953125 47.796875 -5.828125 C 54.585938 -8.796875 59.019531 -14.101562 61.09375 -21.75 C 61.851562 -24.445312 62.234375 -27.945312 62.234375 -32.25 C 62.234375 -36.550781 61.5 -40.71875 60.03125 -44.75 C 58.5625 -48.789062 56.507812 -52.195312 53.875 -54.96875 C 48.507812 -60.664062 41.273438 -63.515625 32.171875 -63.515625 C 25.679688 -63.515625 21.960938 -62.660156 21.015625 -60.953125 C 20.515625 -60.023438 20.25 -58.972656 20.21875 -57.796875 C 20.1875 -56.628906 20.171875 -55.488281 20.171875 -54.375 Z M 20.171875 -22.78125 "/></g></g></g><g fill="#ecc8c7" fill-opacity="1"><g transform="translate(75.972282, 178.279919)"><g><path d="M 5.78125 0.734375 C 3.570312 0.734375 2.46875 0.125 2.46875 -1.09375 C 2.46875 -2.039062 3.078125 -2.515625 4.296875 -2.515625 L 6.765625 -2.28125 C 7.523438 -2.28125 8.148438 -2.414062 8.640625 -2.6875 C 9.140625 -2.96875 9.519531 -3.570312 9.78125 -4.5 C 10.3125 -6.175781 10.578125 -9.898438 10.578125 -15.671875 L 10.578125 -30.453125 C 10.578125 -33.804688 10.367188 -35.90625 9.953125 -36.75 C 9.546875 -37.59375 9.050781 -38.171875 8.46875 -38.484375 C 7.894531 -38.796875 6.957031 -39.050781 5.65625 -39.25 C 4.351562 -39.445312 3.703125 -39.957031 3.703125 -40.78125 C 3.703125 -41.539062 4.546875 -42.082031 6.234375 -42.40625 C 10.148438 -43.226562 12.847656 -44.054688 14.328125 -44.890625 C 16.335938 -46.035156 17.710938 -46.609375 18.453125 -46.609375 C 19.203125 -46.609375 19.578125 -46.226562 19.578125 -45.46875 C 19.578125 -45.113281 19.5 -44.738281 19.34375 -44.34375 C 19.195312 -43.945312 19.039062 -43.46875 18.875 -42.90625 C 18.613281 -41.78125 18.421875 -39.671875 18.296875 -36.578125 C 21.160156 -41.390625 24.617188 -44.390625 28.671875 -45.578125 C 29.859375 -45.941406 31.179688 -46.125 32.640625 -46.125 C 34.109375 -46.125 35.410156 -45.59375 36.546875 -44.53125 C 37.691406 -43.476562 38.265625 -42.359375 38.265625 -41.171875 C 38.265625 -39.984375 38.128906 -39.109375 37.859375 -38.546875 C 37.597656 -37.992188 37.269531 -37.519531 36.875 -37.125 C 36.019531 -36.269531 35.253906 -35.84375 34.578125 -35.84375 C 33.898438 -35.84375 33.378906 -36.015625 33.015625 -36.359375 C 32.648438 -36.703125 32.238281 -37.335938 31.78125 -38.265625 C 30.957031 -39.910156 30.035156 -40.734375 29.015625 -40.734375 C 27.992188 -40.734375 27.019531 -40.507812 26.09375 -40.0625 C 25.175781 -39.613281 24.253906 -38.945312 23.328125 -38.0625 C 21.316406 -36.1875 19.617188 -33.632812 18.234375 -30.40625 L 18.234375 -15.671875 C 18.234375 -9.410156 18.40625 -5.726562 18.75 -4.625 C 19.101562 -3.519531 19.535156 -2.859375 20.046875 -2.640625 C 20.554688 -2.429688 21.253906 -2.328125 22.140625 -2.328125 L 26.546875 -2.71875 C 27.203125 -2.71875 27.726562 -2.5625 28.125 -2.25 C 28.519531 -1.9375 28.71875 -1.550781 28.71875 -1.09375 C 28.71875 0.125 27.515625 0.734375 25.109375 0.734375 L 14.6875 0 C 13 0 11.40625 0.117188 9.90625 0.359375 C 8.40625 0.609375 7.03125 0.734375 5.78125 0.734375 Z M 5.78125 0.734375 "/></g></g></g><g fill="#ecc8c7" fill-opacity="1"><g transform="translate(115.169437, 178.279919)"><g/></g></g><g fill="#ecc8c7" fill-opacity="1"><g transform="translate(141.119639, 178.279919)"><g><path d="M 38.40625 -65.5 L 40.484375 -65.796875 C 41.410156 -65.796875 41.921875 -65.046875 42.015625 -63.546875 C 42.117188 -62.046875 42.25 -60.816406 42.40625 -59.859375 C 42.570312 -58.898438 42.738281 -58.039062 42.90625 -57.28125 C 43.070312 -56.53125 43.210938 -55.890625 43.328125 -55.359375 C 43.441406 -54.835938 43.5 -54.398438 43.5 -54.046875 C 43.5 -53.703125 43.304688 -53.375 42.921875 -53.0625 C 42.546875 -52.75 42.144531 -52.59375 41.71875 -52.59375 C 40.957031 -52.59375 40.21875 -53.398438 39.5 -55.015625 C 38.113281 -58.078125 36.957031 -60.054688 36.03125 -60.953125 C 33.894531 -62.859375 30.75 -63.8125 26.59375 -63.8125 C 20.789062 -63.8125 16.898438 -62.082031 14.921875 -58.625 C 14.296875 -57.5 13.984375 -56.128906 13.984375 -54.515625 C 13.984375 -52.898438 14.367188 -51.382812 15.140625 -49.96875 C 15.921875 -48.550781 17.109375 -47.125 18.703125 -45.6875 C 20.304688 -44.257812 22.34375 -42.722656 24.8125 -41.078125 C 27.28125 -39.429688 29.929688 -37.632812 32.765625 -35.6875 C 35.609375 -33.738281 37.816406 -31.984375 39.390625 -30.421875 C 40.972656 -28.859375 42.257812 -27.300781 43.25 -25.75 C 45.125 -22.820312 46.0625 -19.972656 46.0625 -17.203125 C 46.0625 -14.429688 45.664062 -11.96875 44.875 -9.8125 C 44.09375 -7.65625 42.8125 -5.769531 41.03125 -4.15625 C 37.175781 -0.5625 31.472656 1.234375 23.921875 1.234375 C 20.097656 1.234375 15.878906 0.394531 11.265625 -1.28125 C 10.210938 -1.644531 9.554688 -2.054688 9.296875 -2.515625 C 8.992188 -3.078125 8.726562 -4.128906 8.5 -5.671875 C 8.269531 -7.222656 8 -8.625 7.6875 -9.875 C 7.375 -11.132812 7.085938 -12.257812 6.828125 -13.25 L 6.125 -15.8125 C 5.925781 -16.570312 5.828125 -17.203125 5.828125 -17.703125 C 5.828125 -18.878906 6.273438 -19.46875 7.171875 -19.46875 C 8.359375 -19.46875 9.210938 -18.5625 9.734375 -16.75 C 10.660156 -13.519531 11.484375 -11.429688 12.203125 -10.484375 C 15.003906 -6.785156 18.253906 -4.378906 21.953125 -3.265625 C 23.035156 -2.929688 24.488281 -2.765625 26.3125 -2.765625 C 28.144531 -2.765625 29.941406 -3.035156 31.703125 -3.578125 C 33.472656 -4.128906 34.929688 -4.863281 36.078125 -5.78125 C 38.253906 -7.5625 39.34375 -9.726562 39.34375 -12.28125 C 39.34375 -14.832031 38.523438 -17.140625 36.890625 -19.203125 C 35.265625 -21.265625 33.304688 -23.0625 31.015625 -24.59375 C 28.722656 -26.125 27.007812 -27.25 25.875 -27.96875 C 24.738281 -28.695312 23.675781 -29.390625 22.6875 -30.046875 C 14.351562 -35.617188 9.425781 -41.15625 7.90625 -46.65625 C 7.507812 -48.113281 7.3125 -49.78125 7.3125 -51.65625 C 7.3125 -53.53125 7.769531 -55.457031 8.6875 -57.4375 C 9.613281 -59.414062 10.9375 -61.144531 12.65625 -62.625 C 16.445312 -65.851562 21.335938 -67.46875 27.328125 -67.46875 C 30.066406 -67.46875 32.257812 -67.1875 33.90625 -66.625 C 36.21875 -65.875 37.71875 -65.5 38.40625 -65.5 Z M 38.40625 -65.5 "/></g></g></g><g fill="#ecc8c7" fill-opacity="1"><g transform="translate(191.487732, 178.279919)"><g><path d="M 20.21875 -61.359375 C 20.21875 -59.960938 19.75 -58.773438 18.8125 -57.796875 C 17.875 -56.828125 16.601562 -56.34375 15 -56.34375 C 13.40625 -56.34375 12.171875 -56.8125 11.296875 -57.75 C 10.421875 -58.695312 9.984375 -59.722656 9.984375 -60.828125 C 9.984375 -61.929688 10.128906 -62.78125 10.421875 -63.375 C 10.722656 -63.96875 11.101562 -64.476562 11.5625 -64.90625 C 12.582031 -65.789062 13.828125 -66.234375 15.296875 -66.234375 C 16.765625 -66.234375 17.953125 -65.769531 18.859375 -64.84375 C 19.765625 -63.925781 20.21875 -62.765625 20.21875 -61.359375 Z M 6.625 0.734375 C 4.414062 0.734375 3.3125 0.125 3.3125 -1.09375 C 3.3125 -2.039062 3.921875 -2.515625 5.140625 -2.515625 L 7.609375 -2.28125 C 8.367188 -2.28125 8.992188 -2.414062 9.484375 -2.6875 C 9.984375 -2.96875 10.378906 -3.570312 10.671875 -4.5 C 11.203125 -6.144531 11.46875 -9.867188 11.46875 -15.671875 L 11.46875 -30.546875 C 11.46875 -33.804688 11.242188 -35.875 10.796875 -36.75 C 10.359375 -37.625 9.859375 -38.21875 9.296875 -38.53125 C 8.734375 -38.84375 7.800781 -39.085938 6.5 -39.265625 C 5.195312 -39.453125 4.546875 -39.972656 4.546875 -40.828125 C 4.546875 -41.585938 5.40625 -42.148438 7.125 -42.515625 C 11.039062 -43.304688 13.738281 -44.113281 15.21875 -44.9375 C 17.269531 -46.082031 18.671875 -46.65625 19.421875 -46.65625 C 20.179688 -46.65625 20.5625 -46.28125 20.5625 -45.53125 C 20.5625 -45.164062 20.492188 -44.785156 20.359375 -44.390625 C 19.609375 -42.117188 19.234375 -37.632812 19.234375 -30.9375 L 19.234375 -15.671875 C 19.234375 -9.867188 19.4375 -6.320312 19.84375 -5.03125 C 20.257812 -3.75 20.710938 -2.96875 21.203125 -2.6875 C 21.703125 -2.414062 22.328125 -2.28125 23.078125 -2.28125 L 25.5625 -2.515625 C 26.78125 -2.515625 27.390625 -2.039062 27.390625 -1.09375 C 27.390625 0.125 26.285156 0.734375 24.078125 0.734375 C 22.816406 0.734375 21.46875 0.609375 20.03125 0.359375 C 18.601562 0.117188 17.066406 0 15.421875 0 C 13.773438 0 12.207031 0.117188 10.71875 0.359375 C 9.238281 0.609375 7.875 0.734375 6.625 0.734375 Z M 6.625 0.734375 "/></g></g></g><g fill="#ecc8c7" fill-opacity="1"><g transform="translate(220.403669, 178.279919)"><g><path d="M 31.734375 -41.71875 C 31.734375 -40.832031 31.207031 -40.390625 30.15625 -40.390625 L 16.109375 -40.53125 L 16.109375 -13.15625 C 16.109375 -8.039062 17.347656 -5.003906 19.828125 -4.046875 C 20.578125 -3.753906 21.460938 -3.609375 22.484375 -3.609375 C 23.503906 -3.609375 24.4375 -3.78125 25.28125 -4.125 C 26.125 -4.46875 26.875 -4.835938 27.53125 -5.234375 C 28.1875 -5.628906 28.742188 -6 29.203125 -6.34375 C 29.671875 -6.695312 30.109375 -6.875 30.515625 -6.875 C 30.929688 -6.875 31.300781 -6.640625 31.625 -6.171875 C 31.957031 -5.710938 32.125 -5.253906 32.125 -4.796875 C 32.125 -3.640625 30.660156 -2.253906 27.734375 -0.640625 C 25.492188 0.609375 22.675781 1.234375 19.28125 1.234375 C 15.882812 1.234375 13.226562 0.0234375 11.3125 -2.390625 C 9.40625 -4.816406 8.453125 -8.171875 8.453125 -12.453125 L 8.453125 -40.6875 L 5.4375 -40.6875 C 3.0625 -40.6875 1.875 -41.296875 1.875 -42.515625 C 1.875 -43.398438 2.53125 -44.003906 3.84375 -44.328125 C 5.164062 -44.660156 6.304688 -45.25 7.265625 -46.09375 C 8.222656 -46.9375 9.003906 -47.890625 9.609375 -48.953125 C 10.222656 -50.023438 10.707031 -51.140625 11.0625 -52.296875 C 11.425781 -53.453125 11.757812 -54.507812 12.0625 -55.46875 C 12.789062 -57.632812 13.613281 -58.71875 14.53125 -58.71875 C 15.582031 -58.71875 16.109375 -57.78125 16.109375 -55.90625 L 16.109375 -44.734375 L 30 -45.03125 C 30.695312 -45.03125 31.242188 -44.207031 31.640625 -42.5625 C 31.703125 -42.195312 31.734375 -41.914062 31.734375 -41.71875 Z M 31.734375 -41.71875 "/></g></g></g><g fill="#ecc8c7" fill-opacity="1"><g transform="translate(254.311915, 178.279919)"><g><path d="M 49.03125 -6.625 C 49.988281 -6.625 50.46875 -6.1875 50.46875 -5.3125 C 50.46875 -4.4375 49.507812 -3.601562 47.59375 -2.8125 C 45.6875 -2.019531 44.351562 -1.300781 43.59375 -0.65625 C 42.84375 -0.0195312 42.285156 0.453125 41.921875 0.765625 C 41.554688 1.078125 41.125 1.234375 40.625 1.234375 C 39.644531 1.234375 38.820312 0.820312 38.15625 0 C 37.5 -0.820312 36.609375 -2.585938 35.484375 -5.296875 C 33.609375 -3.148438 31.328125 -1.523438 28.640625 -0.421875 C 25.953125 0.679688 23.289062 1.234375 20.65625 1.234375 C 15.6875 1.234375 11.832031 -0.03125 9.09375 -2.5625 C 6.363281 -5.101562 5 -8.582031 5 -13 C 5 -17.414062 7.066406 -21 11.203125 -23.75 C 15.335938 -26.5 20.613281 -27.875 27.03125 -27.875 C 28.945312 -27.875 31.472656 -27.546875 34.609375 -26.890625 L 34.609375 -30.75 C 34.609375 -39.21875 31.03125 -43.453125 23.875 -43.453125 C 20.082031 -43.453125 17.296875 -41.703125 15.515625 -38.203125 C 13.972656 -35.078125 12.457031 -33.515625 10.96875 -33.515625 C 9.882812 -33.515625 8.9375 -33.828125 8.125 -34.453125 C 7.320312 -35.078125 6.921875 -35.867188 6.921875 -36.828125 C 6.921875 -37.785156 7.414062 -38.847656 8.40625 -40.015625 C 9.394531 -41.179688 10.710938 -42.242188 12.359375 -43.203125 C 16.242188 -45.472656 20.507812 -46.609375 25.15625 -46.609375 C 33.394531 -46.609375 38.71875 -43.925781 41.125 -38.5625 C 42.019531 -36.644531 42.46875 -34.300781 42.46875 -31.53125 L 42.46875 -11.8125 C 42.46875 -9.269531 42.710938 -7.632812 43.203125 -6.90625 C 43.691406 -6.1875 44.378906 -5.828125 45.265625 -5.828125 C 46.160156 -5.828125 46.890625 -5.957031 47.453125 -6.21875 C 48.015625 -6.488281 48.539062 -6.625 49.03125 -6.625 Z M 34.609375 -22.296875 C 32.234375 -23.640625 29.234375 -24.3125 25.609375 -24.3125 C 21.984375 -24.3125 19.070312 -23.40625 16.875 -21.59375 C 14.6875 -19.78125 13.59375 -17.347656 13.59375 -14.296875 C 13.59375 -11.253906 14.429688 -8.71875 16.109375 -6.6875 C 17.796875 -4.664062 19.957031 -3.65625 22.59375 -3.65625 C 28.226562 -3.65625 32.28125 -5.5 34.75 -9.1875 C 34.65625 -10.113281 34.609375 -11.140625 34.609375 -12.265625 Z M 34.609375 -22.296875 "/></g></g></g><g fill="#ecc8c7" fill-opacity="1"><g transform="translate(305.372011, 178.279919)"><g><path d="M 9 -44.734375 C 8.695312 -44.734375 8.429688 -44.851562 8.203125 -45.09375 C 7.972656 -45.34375 7.859375 -45.617188 7.859375 -45.921875 C 7.859375 -46.578125 8.128906 -47.128906 8.671875 -47.578125 C 9.210938 -48.023438 9.671875 -48.476562 10.046875 -48.9375 C 10.429688 -49.394531 10.804688 -49.921875 11.171875 -50.515625 C 11.992188 -52.003906 12.40625 -53.414062 12.40625 -54.75 C 12.40625 -56.082031 12.148438 -57.175781 11.640625 -58.03125 C 11.128906 -58.882812 10.566406 -59.59375 9.953125 -60.15625 C 9.347656 -60.71875 8.789062 -61.238281 8.28125 -61.71875 C 7.769531 -62.195312 7.515625 -62.75 7.515625 -63.375 C 7.515625 -64 7.59375 -64.53125 7.75 -64.96875 C 7.914062 -65.414062 8.179688 -65.835938 8.546875 -66.234375 C 9.410156 -67.160156 10.394531 -67.625 11.5 -67.625 C 12.601562 -67.625 13.488281 -67.390625 14.15625 -66.921875 C 14.832031 -66.460938 15.421875 -65.835938 15.921875 -65.046875 C 16.972656 -63.304688 17.5 -61.296875 17.5 -59.015625 C 17.5 -56.742188 17.175781 -54.785156 16.53125 -53.140625 C 15.894531 -51.492188 15.128906 -50.09375 14.234375 -48.9375 C 12.617188 -46.820312 10.875 -45.421875 9 -44.734375 Z M 9 -44.734375 "/></g></g></g><g fill="#ecc8c7" fill-opacity="1"><g transform="translate(331.618786, 178.279919)"><g><path d="M 9.046875 -2.671875 C 7.523438 -3.753906 6.335938 -4.945312 5.484375 -6.25 C 4.628906 -7.550781 4.203125 -8.570312 4.203125 -9.3125 C 4.203125 -10.0625 4.304688 -10.625 4.515625 -11 C 4.734375 -11.375 5.023438 -11.726562 5.390625 -12.0625 C 6.242188 -12.882812 7.070312 -13.296875 7.875 -13.296875 C 8.6875 -13.296875 9.304688 -13.101562 9.734375 -12.71875 C 10.160156 -12.34375 10.5625 -11.601562 10.9375 -10.5 C 11.320312 -9.394531 11.867188 -8.332031 12.578125 -7.3125 C 13.285156 -6.289062 14.132812 -5.398438 15.125 -4.640625 C 17.269531 -3.023438 19.890625 -2.21875 22.984375 -2.21875 C 25.722656 -2.21875 28.046875 -2.894531 29.953125 -4.25 C 31.960938 -5.632812 32.96875 -7.363281 32.96875 -9.4375 C 32.96875 -11.550781 32.0625 -13.398438 30.25 -14.984375 C 28.300781 -16.660156 25.414062 -18.265625 21.59375 -19.796875 C 17.78125 -21.328125 15.0625 -22.617188 13.4375 -23.671875 C 11.820312 -24.734375 10.503906 -25.851562 9.484375 -27.03125 C 7.546875 -29.3125 6.578125 -31.914062 6.578125 -34.84375 C 6.578125 -38.207031 8.097656 -41.007812 11.140625 -43.25 C 14.191406 -45.488281 18.023438 -46.609375 22.640625 -46.609375 C 26.628906 -46.609375 29.988281 -45.769531 32.71875 -44.09375 C 35.09375 -42.613281 36.28125 -41.046875 36.28125 -39.390625 C 36.28125 -38.535156 35.84375 -37.800781 34.96875 -37.1875 C 34.09375 -36.582031 33.269531 -36.28125 32.5 -36.28125 C 31.726562 -36.28125 31.125 -36.4375 30.6875 -36.75 C 30.257812 -37.0625 29.617188 -37.878906 28.765625 -39.203125 C 27.085938 -41.804688 24.535156 -43.109375 21.109375 -43.109375 C 17.253906 -43.109375 14.695312 -41.953125 13.4375 -39.640625 C 13.082031 -38.984375 12.90625 -38.273438 12.90625 -37.515625 C 12.90625 -36.753906 13.0625 -36.019531 13.375 -35.3125 C 13.6875 -34.601562 14.269531 -33.875 15.125 -33.125 C 16.9375 -31.601562 20.265625 -29.835938 25.109375 -27.828125 C 34.597656 -23.910156 39.34375 -18.882812 39.34375 -12.75 C 39.34375 -8.632812 37.679688 -5.273438 34.359375 -2.671875 C 30.992188 -0.0664062 26.675781 1.234375 21.40625 1.234375 C 16.726562 1.234375 12.609375 -0.0664062 9.046875 -2.671875 Z M 9.046875 -2.671875 "/></g></g></g><g fill="#ecc8c7" fill-opacity="1"><g transform="translate(0.0000045, 255.046126)"><g><path d="M 3.3125 0.390625 C 2.21875 0.390625 1.671875 0.0820312 1.671875 -0.53125 C 1.671875 -1.144531 2.035156 -1.453125 2.765625 -1.453125 C 3.847656 -1.453125 4.613281 -1.613281 5.0625 -1.9375 C 5.9375 -2.570312 6.453125 -3.664062 6.609375 -5.21875 C 6.648438 -5.582031 6.691406 -6.132812 6.734375 -6.875 C 6.773438 -7.613281 6.828125 -8.476562 6.890625 -9.46875 C 6.953125 -10.457031 7.003906 -11.550781 7.046875 -12.75 C 7.097656 -13.945312 7.15625 -15.175781 7.21875 -16.4375 C 7.28125 -17.707031 7.335938 -18.976562 7.390625 -20.25 C 7.441406 -21.53125 7.484375 -22.75 7.515625 -23.90625 C 7.609375 -26.78125 7.65625 -28.59375 7.65625 -29.34375 C 7.65625 -30.101562 7.597656 -30.695312 7.484375 -31.125 C 7.367188 -31.5625 7.207031 -31.921875 7 -32.203125 C 6.625 -32.679688 6.015625 -32.984375 5.171875 -33.109375 C 3.691406 -33.304688 2.953125 -33.625 2.953125 -34.0625 C 2.953125 -34.351562 3.054688 -34.585938 3.265625 -34.765625 C 3.484375 -34.953125 3.765625 -35.046875 4.109375 -35.046875 L 8.171875 -34.671875 L 10.4375 -34.78125 C 10.851562 -34.78125 11.195312 -34.601562 11.46875 -34.25 C 11.75 -33.894531 12.0625 -33.375 12.40625 -32.6875 L 24.90625 -6.765625 C 25.195312 -7.441406 25.582031 -8.328125 26.0625 -9.421875 C 26.550781 -10.523438 27.082031 -11.75 27.65625 -13.09375 C 28.238281 -14.4375 28.851562 -15.859375 29.5 -17.359375 C 30.15625 -18.859375 30.800781 -20.347656 31.4375 -21.828125 C 32.082031 -23.316406 32.695312 -24.738281 33.28125 -26.09375 C 33.863281 -27.457031 34.378906 -28.664062 34.828125 -29.71875 C 35.273438 -30.78125 35.644531 -31.644531 35.9375 -32.3125 C 36.238281 -32.988281 36.441406 -33.46875 36.546875 -33.75 C 36.660156 -34.039062 36.878906 -34.304688 37.203125 -34.546875 C 37.535156 -34.785156 37.925781 -34.90625 38.375 -34.90625 L 40.796875 -34.8125 L 43.90625 -35.046875 C 45.195312 -35.046875 45.84375 -34.722656 45.84375 -34.078125 C 45.84375 -33.773438 45.554688 -33.566406 44.984375 -33.453125 C 44.421875 -33.335938 43.941406 -33.238281 43.546875 -33.15625 C 43.148438 -33.070312 42.78125 -32.941406 42.4375 -32.765625 C 41.632812 -32.335938 41.234375 -31.625 41.234375 -30.625 L 42.5625 -5.328125 C 42.695312 -3.097656 43.53125 -1.835938 45.0625 -1.546875 C 45.5 -1.484375 45.921875 -1.453125 46.328125 -1.453125 C 47.066406 -1.453125 47.4375 -1.144531 47.4375 -0.53125 C 47.4375 0.0820312 46.894531 0.390625 45.8125 0.390625 C 45.382812 0.390625 45.015625 0.367188 44.703125 0.328125 C 44.390625 0.285156 44.082031 0.242188 43.78125 0.203125 C 42.84375 0.0664062 41.992188 0 41.234375 0 L 35.734375 0.390625 C 34.617188 0.390625 34.0625 0.0703125 34.0625 -0.5625 C 34.0625 -1.101562 34.460938 -1.375 35.265625 -1.375 C 36.078125 -1.375 36.664062 -1.4375 37.03125 -1.5625 C 37.40625 -1.6875 37.679688 -1.890625 37.859375 -2.171875 C 38.097656 -2.585938 38.21875 -3.5625 38.21875 -5.09375 L 38.21875 -7.515625 C 38.21875 -8.691406 38.128906 -11.070312 37.953125 -14.65625 C 37.785156 -18.238281 37.664062 -20.796875 37.59375 -22.328125 C 37.457031 -25.566406 37.328125 -28.019531 37.203125 -29.6875 L 24.984375 -1.671875 C 24.535156 -0.660156 24.132812 -0.15625 23.78125 -0.15625 C 23.53125 -0.15625 23.320312 -0.28125 23.15625 -0.53125 C 23 -0.78125 22.78125 -1.179688 22.5 -1.734375 L 10 -27.5 C 9.34375 -18.726562 9.015625 -10.707031 9.015625 -3.4375 C 9.015625 -2.019531 10.160156 -1.3125 12.453125 -1.3125 C 13.078125 -1.3125 13.390625 -1.0625 13.390625 -0.5625 C 13.390625 0.0703125 12.828125 0.390625 11.703125 0.390625 L 7.515625 0 C 6.640625 0 5.8125 0.0625 5.03125 0.1875 C 4.257812 0.320312 3.6875 0.390625 3.3125 0.390625 Z M 37.984375 -31.46875 L 38.015625 -31.5 Z M 37.984375 -31.46875 "/></g></g></g><g fill="#ecc8c7" fill-opacity="1"><g transform="translate(49.11589, 255.046126)"><g><path d="M 10.5625 -32.078125 C 10.5625 -31.347656 10.316406 -30.726562 9.828125 -30.21875 C 9.335938 -29.707031 8.675781 -29.453125 7.84375 -29.453125 C 7.007812 -29.453125 6.363281 -29.695312 5.90625 -30.1875 C 5.445312 -30.6875 5.21875 -31.222656 5.21875 -31.796875 C 5.21875 -32.367188 5.296875 -32.8125 5.453125 -33.125 C 5.609375 -33.4375 5.804688 -33.703125 6.046875 -33.921875 C 6.578125 -34.390625 7.222656 -34.625 7.984375 -34.625 C 8.753906 -34.625 9.375 -34.378906 9.84375 -33.890625 C 10.320312 -33.410156 10.5625 -32.804688 10.5625 -32.078125 Z M 3.46875 0.390625 C 2.3125 0.390625 1.734375 0.0703125 1.734375 -0.5625 C 1.734375 -1.0625 2.050781 -1.3125 2.6875 -1.3125 L 3.984375 -1.1875 C 4.378906 -1.1875 4.703125 -1.257812 4.953125 -1.40625 C 5.210938 -1.550781 5.421875 -1.863281 5.578125 -2.34375 C 5.859375 -3.207031 6 -5.15625 6 -8.1875 L 6 -15.96875 C 6 -17.675781 5.878906 -18.753906 5.640625 -19.203125 C 5.410156 -19.660156 5.148438 -19.972656 4.859375 -20.140625 C 4.566406 -20.304688 4.078125 -20.4375 3.390625 -20.53125 C 2.710938 -20.625 2.375 -20.894531 2.375 -21.34375 C 2.375 -21.738281 2.820312 -22.03125 3.71875 -22.21875 C 5.769531 -22.632812 7.179688 -23.054688 7.953125 -23.484375 C 9.023438 -24.085938 9.757812 -24.390625 10.15625 -24.390625 C 10.550781 -24.390625 10.75 -24.191406 10.75 -23.796875 C 10.75 -23.609375 10.710938 -23.410156 10.640625 -23.203125 C 10.242188 -22.015625 10.046875 -19.671875 10.046875 -16.171875 L 10.046875 -8.1875 C 10.046875 -5.15625 10.15625 -3.300781 10.375 -2.625 C 10.59375 -1.957031 10.828125 -1.550781 11.078125 -1.40625 C 11.335938 -1.257812 11.664062 -1.1875 12.0625 -1.1875 L 13.359375 -1.3125 C 13.992188 -1.3125 14.3125 -1.0625 14.3125 -0.5625 C 14.3125 0.0703125 13.734375 0.390625 12.578125 0.390625 C 11.929688 0.390625 11.234375 0.320312 10.484375 0.1875 C 9.734375 0.0625 8.925781 0 8.0625 0 C 7.195312 0 6.375 0.0625 5.59375 0.1875 C 4.820312 0.320312 4.113281 0.390625 3.46875 0.390625 Z M 3.46875 0.390625 "/></g></g></g><g fill="#ecc8c7" fill-opacity="1"><g transform="translate(64.230467, 255.046126)"><g><path d="M 3.125 0.390625 C 1.988281 0.390625 1.421875 0.0703125 1.421875 -0.5625 C 1.421875 -1.0625 1.738281 -1.3125 2.375 -1.3125 L 3.75 -1.1875 C 4.144531 -1.1875 4.46875 -1.257812 4.71875 -1.40625 C 4.976562 -1.550781 5.179688 -1.863281 5.328125 -2.34375 C 5.597656 -3.226562 5.734375 -5.175781 5.734375 -8.1875 L 5.734375 -15.921875 C 5.734375 -17.660156 5.613281 -18.75 5.375 -19.1875 C 5.144531 -19.625 4.867188 -19.925781 4.546875 -20.09375 C 4.222656 -20.257812 3.710938 -20.394531 3.015625 -20.5 C 2.328125 -20.613281 1.984375 -20.882812 1.984375 -21.3125 C 1.984375 -21.707031 2.425781 -21.992188 3.3125 -22.171875 C 5.53125 -22.640625 7.007812 -23.078125 7.75 -23.484375 C 8.769531 -24.078125 9.472656 -24.375 9.859375 -24.375 C 10.242188 -24.375 10.4375 -24.175781 10.4375 -23.78125 C 10.4375 -23.582031 10.40625 -23.378906 10.34375 -23.171875 C 10.007812 -22.347656 9.816406 -21.015625 9.765625 -19.171875 C 10.742188 -20.847656 11.96875 -22.132812 13.4375 -23.03125 C 14.914062 -23.925781 16.375 -24.375 17.8125 -24.375 C 19.25 -24.375 20.46875 -24.191406 21.46875 -23.828125 C 22.46875 -23.460938 23.320312 -22.910156 24.03125 -22.171875 C 25.476562 -20.617188 26.203125 -18.335938 26.203125 -15.328125 L 26.203125 -8.1875 C 26.203125 -5.175781 26.304688 -3.328125 26.515625 -2.640625 C 26.722656 -1.960938 26.953125 -1.550781 27.203125 -1.40625 C 27.460938 -1.257812 27.789062 -1.1875 28.1875 -1.1875 L 29.53125 -1.3125 C 30.164062 -1.3125 30.484375 -1.0625 30.484375 -0.5625 C 30.484375 0.0703125 29.910156 0.390625 28.765625 0.390625 C 28.085938 0.390625 27.375 0.320312 26.625 0.1875 C 25.875 0.0625 25.070312 0 24.21875 0 C 23.375 0 22.5625 0.0625 21.78125 0.1875 C 21.007812 0.320312 20.285156 0.390625 19.609375 0.390625 C 18.453125 0.390625 17.875 0.0703125 17.875 -0.5625 C 17.875 -1.0625 18.195312 -1.3125 18.84375 -1.3125 L 20.1875 -1.1875 C 20.582031 -1.1875 20.90625 -1.257812 21.15625 -1.40625 C 21.414062 -1.550781 21.625 -1.863281 21.78125 -2.34375 C 22.0625 -3.207031 22.203125 -5.15625 22.203125 -8.1875 L 22.203125 -14.078125 C 22.203125 -19.003906 20.410156 -21.46875 16.828125 -21.46875 C 14.296875 -21.46875 12.320312 -20.320312 10.90625 -18.03125 C 10.40625 -17.1875 10.015625 -16.15625 9.734375 -14.9375 L 9.734375 -8.1875 C 9.734375 -5.175781 9.835938 -3.328125 10.046875 -2.640625 C 10.253906 -1.960938 10.488281 -1.550781 10.75 -1.40625 C 11.007812 -1.257812 11.335938 -1.1875 11.734375 -1.1875 L 13.09375 -1.3125 C 13.738281 -1.3125 14.0625 -1.0625 14.0625 -0.5625 C 14.0625 0.0703125 13.492188 0.390625 12.359375 0.390625 C 11.703125 0.390625 11.003906 0.320312 10.265625 0.1875 C 9.535156 0.0625 8.710938 0 7.796875 0 C 6.890625 0 6.050781 0.0625 5.28125 0.1875 C 4.519531 0.320312 3.800781 0.390625 3.125 0.390625 Z M 3.125 0.390625 "/></g></g></g><g fill="#ecc8c7" fill-opacity="1"><g transform="translate(95.157203, 255.046126)"><g><path d="M 20.484375 -2.296875 C 18.648438 -0.335938 16.234375 0.640625 13.234375 0.640625 C 9.710938 0.640625 6.9375 -0.570312 4.90625 -3 C 3.03125 -5.269531 2.09375 -8.164062 2.09375 -11.6875 C 2.09375 -15.195312 3.25 -18.179688 5.5625 -20.640625 C 7.882812 -23.128906 10.773438 -24.375 14.234375 -24.375 C 16.515625 -24.375 18.421875 -23.941406 19.953125 -23.078125 L 19.953125 -28.53125 C 19.953125 -30.144531 19.820312 -31.195312 19.5625 -31.6875 C 19.300781 -32.1875 19.023438 -32.519531 18.734375 -32.6875 C 18.441406 -32.863281 17.972656 -33 17.328125 -33.09375 C 16.679688 -33.195312 16.359375 -33.46875 16.359375 -33.90625 C 16.359375 -34.300781 16.796875 -34.582031 17.671875 -34.75 C 19.742188 -35.1875 21.164062 -35.628906 21.9375 -36.078125 C 22.988281 -36.660156 23.695312 -36.953125 24.0625 -36.953125 C 24.457031 -36.953125 24.65625 -36.753906 24.65625 -36.359375 C 24.65625 -36.171875 24.617188 -35.972656 24.546875 -35.765625 C 24.179688 -34.835938 23.988281 -33.65625 23.96875 -32.21875 C 23.957031 -30.789062 23.953125 -29.628906 23.953125 -28.734375 L 23.953125 -7.578125 C 23.953125 -5.679688 24.0625 -4.457031 24.28125 -3.90625 C 24.507812 -3.351562 24.734375 -2.992188 24.953125 -2.828125 C 25.179688 -2.660156 25.453125 -2.578125 25.765625 -2.578125 L 27.3125 -2.921875 C 27.8125 -2.921875 28.0625 -2.695312 28.0625 -2.25 C 28.0625 -1.988281 27.953125 -1.769531 27.734375 -1.59375 C 27.523438 -1.425781 27.160156 -1.226562 26.640625 -1 C 26.117188 -0.78125 25.6875 -0.550781 25.34375 -0.3125 C 25 -0.0703125 24.703125 0.148438 24.453125 0.359375 C 23.859375 0.859375 23.398438 1.109375 23.078125 1.109375 C 21.953125 1.109375 21.085938 -0.0234375 20.484375 -2.296875 Z M 19.953125 -19.21875 C 18.378906 -21.363281 16.207031 -22.4375 13.4375 -22.4375 C 11.351562 -22.4375 9.679688 -21.632812 8.421875 -20.03125 C 7.078125 -18.34375 6.40625 -16.03125 6.40625 -13.09375 C 6.40625 -9.6875 7.273438 -6.957031 9.015625 -4.90625 C 10.640625 -2.976562 12.578125 -2.015625 14.828125 -2.015625 C 17.117188 -2.015625 18.867188 -2.820312 20.078125 -4.4375 C 19.992188 -5.082031 19.953125 -5.828125 19.953125 -6.671875 Z M 19.953125 -19.21875 "/></g></g></g><g fill="#ecc8c7" fill-opacity="1"><g transform="translate(123.6036, 255.046126)"><g/></g></g><g fill="#ecc8c7" fill-opacity="1"><g transform="translate(137.167965, 255.046126)"><g><path d="M 3.359375 0.390625 C 2.234375 0.390625 1.671875 0.0703125 1.671875 -0.5625 C 1.671875 -1.0625 1.984375 -1.3125 2.609375 -1.3125 L 3.875 -1.1875 C 4.800781 -1.1875 5.445312 -1.632812 5.8125 -2.53125 C 6.207031 -3.53125 6.40625 -5.414062 6.40625 -8.1875 L 6.40625 -26.4375 C 6.40625 -29.332031 6.257812 -31.140625 5.96875 -31.859375 C 5.675781 -32.585938 5.359375 -33.035156 5.015625 -33.203125 C 4.671875 -33.378906 4.238281 -33.46875 3.71875 -33.46875 L 2.609375 -33.328125 C 1.984375 -33.328125 1.671875 -33.578125 1.671875 -34.078125 C 1.671875 -34.722656 2.144531 -35.046875 3.09375 -35.046875 C 4.039062 -35.046875 4.867188 -34.972656 5.578125 -34.828125 C 6.285156 -34.691406 6.960938 -34.625 7.609375 -34.625 C 8.253906 -34.625 8.84375 -34.65625 9.375 -34.71875 C 9.914062 -34.789062 10.476562 -34.863281 11.0625 -34.9375 C 12.71875 -35.15625 14.164062 -35.265625 15.40625 -35.265625 C 16.644531 -35.265625 17.890625 -35.082031 19.140625 -34.71875 C 20.390625 -34.363281 21.460938 -33.847656 22.359375 -33.171875 C 24.242188 -31.785156 25.1875 -29.976562 25.1875 -27.75 C 25.1875 -24.800781 23.941406 -22.304688 21.453125 -20.265625 C 23.597656 -19.660156 25.40625 -18.453125 26.875 -16.640625 C 28.40625 -14.765625 29.171875 -12.671875 29.171875 -10.359375 C 29.171875 -7.085938 28.085938 -4.4375 25.921875 -2.40625 C 23.742188 -0.375 20.898438 0.640625 17.390625 0.640625 C 16.285156 0.640625 15.003906 0.5625 13.546875 0.40625 C 10.703125 0.132812 8.785156 0 7.796875 0 Z M 10.46875 -20.75 C 12.394531 -20.5625 13.960938 -20.46875 15.171875 -20.46875 C 16.910156 -20.46875 17.976562 -20.492188 18.375 -20.546875 C 18.769531 -20.597656 19.128906 -20.769531 19.453125 -21.0625 C 19.785156 -21.351562 20.085938 -21.734375 20.359375 -22.203125 C 20.992188 -23.265625 21.3125 -24.398438 21.3125 -25.609375 C 21.3125 -26.816406 21.101562 -27.878906 20.6875 -28.796875 C 20.28125 -29.722656 19.722656 -30.507812 19.015625 -31.15625 C 17.566406 -32.46875 15.75 -33.125 13.5625 -33.125 C 12.507812 -33.125 11.519531 -32.941406 10.59375 -32.578125 C 10.539062 -31.722656 10.507812 -31.070312 10.5 -30.625 C 10.488281 -30.1875 10.476562 -29.796875 10.46875 -29.453125 C 10.46875 -29.109375 10.46875 -28.800781 10.46875 -28.53125 Z M 22.515625 -15.484375 C 21.804688 -16.378906 20.929688 -17.097656 19.890625 -17.640625 C 18.847656 -18.179688 17.859375 -18.453125 16.921875 -18.453125 L 14.109375 -18.453125 C 13.140625 -18.453125 11.925781 -18.410156 10.46875 -18.328125 L 10.46875 -11.90625 C 10.46875 -8.050781 10.523438 -5.082031 10.640625 -3 C 12.179688 -2.03125 14.15625 -1.546875 16.5625 -1.546875 C 20.40625 -1.546875 22.929688 -2.925781 24.140625 -5.6875 C 24.535156 -6.613281 24.734375 -7.691406 24.734375 -8.921875 C 24.734375 -10.160156 24.539062 -11.34375 24.15625 -12.46875 C 23.78125 -13.59375 23.234375 -14.597656 22.515625 -15.484375 Z M 22.515625 -15.484375 "/></g></g></g><g fill="#ecc8c7" fill-opacity="1"><g transform="translate(168.921481, 255.046126)"><g><path d="M 1.96875 -11.46875 C 1.96875 -13.144531 2.265625 -14.765625 2.859375 -16.328125 C 3.460938 -17.898438 4.316406 -19.28125 5.421875 -20.46875 C 7.835938 -23.070312 10.84375 -24.375 14.4375 -24.375 C 18.4375 -24.375 21.515625 -23.175781 23.671875 -20.78125 C 25.617188 -18.601562 26.59375 -15.785156 26.59375 -12.328125 C 26.59375 -8.828125 25.429688 -5.800781 23.109375 -3.25 C 20.722656 -0.65625 17.722656 0.640625 14.109375 0.640625 C 10.109375 0.640625 7.039062 -0.554688 4.90625 -2.953125 C 2.945312 -5.117188 1.96875 -7.957031 1.96875 -11.46875 Z M 6.328125 -12.5625 C 6.328125 -10.875 6.554688 -9.296875 7.015625 -7.828125 C 7.484375 -6.367188 8.125 -5.15625 8.9375 -4.1875 C 10.539062 -2.21875 12.566406 -1.234375 15.015625 -1.234375 C 17.179688 -1.234375 18.945312 -2.097656 20.3125 -3.828125 C 21.726562 -5.617188 22.4375 -7.925781 22.4375 -10.75 C 22.4375 -14.488281 21.570312 -17.414062 19.84375 -19.53125 C 18.226562 -21.476562 16.195312 -22.453125 13.75 -22.453125 C 11.570312 -22.453125 9.804688 -21.59375 8.453125 -19.875 C 7.035156 -18.082031 6.328125 -15.644531 6.328125 -12.5625 Z M 6.328125 -12.5625 "/></g></g></g><g fill="#ecc8c7" fill-opacity="1"><g transform="translate(197.316204, 255.046126)"><g><path d="M 20.484375 -2.296875 C 18.648438 -0.335938 16.234375 0.640625 13.234375 0.640625 C 9.710938 0.640625 6.9375 -0.570312 4.90625 -3 C 3.03125 -5.269531 2.09375 -8.164062 2.09375 -11.6875 C 2.09375 -15.195312 3.25 -18.179688 5.5625 -20.640625 C 7.882812 -23.128906 10.773438 -24.375 14.234375 -24.375 C 16.515625 -24.375 18.421875 -23.941406 19.953125 -23.078125 L 19.953125 -28.53125 C 19.953125 -30.144531 19.820312 -31.195312 19.5625 -31.6875 C 19.300781 -32.1875 19.023438 -32.519531 18.734375 -32.6875 C 18.441406 -32.863281 17.972656 -33 17.328125 -33.09375 C 16.679688 -33.195312 16.359375 -33.46875 16.359375 -33.90625 C 16.359375 -34.300781 16.796875 -34.582031 17.671875 -34.75 C 19.742188 -35.1875 21.164062 -35.628906 21.9375 -36.078125 C 22.988281 -36.660156 23.695312 -36.953125 24.0625 -36.953125 C 24.457031 -36.953125 24.65625 -36.753906 24.65625 -36.359375 C 24.65625 -36.171875 24.617188 -35.972656 24.546875 -35.765625 C 24.179688 -34.835938 23.988281 -33.65625 23.96875 -32.21875 C 23.957031 -30.789062 23.953125 -29.628906 23.953125 -28.734375 L 23.953125 -7.578125 C 23.953125 -5.679688 24.0625 -4.457031 24.28125 -3.90625 C 24.507812 -3.351562 24.734375 -2.992188 24.953125 -2.828125 C 25.179688 -2.660156 25.453125 -2.578125 25.765625 -2.578125 L 27.3125 -2.921875 C 27.8125 -2.921875 28.0625 -2.695312 28.0625 -2.25 C 28.0625 -1.988281 27.953125 -1.769531 27.734375 -1.59375 C 27.523438 -1.425781 27.160156 -1.226562 26.640625 -1 C 26.117188 -0.78125 25.6875 -0.550781 25.34375 -0.3125 C 25 -0.0703125 24.703125 0.148438 24.453125 0.359375 C 23.859375 0.859375 23.398438 1.109375 23.078125 1.109375 C 21.953125 1.109375 21.085938 -0.0234375 20.484375 -2.296875 Z M 19.953125 -19.21875 C 18.378906 -21.363281 16.207031 -22.4375 13.4375 -22.4375 C 11.351562 -22.4375 9.679688 -21.632812 8.421875 -20.03125 C 7.078125 -18.34375 6.40625 -16.03125 6.40625 -13.09375 C 6.40625 -9.6875 7.273438 -6.957031 9.015625 -4.90625 C 10.640625 -2.976562 12.578125 -2.015625 14.828125 -2.015625 C 17.117188 -2.015625 18.867188 -2.820312 20.078125 -4.4375 C 19.992188 -5.082031 19.953125 -5.828125 19.953125 -6.671875 Z M 19.953125 -19.21875 "/></g></g></g><g fill="#ecc8c7" fill-opacity="1"><g transform="translate(225.762601, 255.046126)"><g><path d="M 24.828125 -24.15625 C 25.535156 -24.15625 25.890625 -23.941406 25.890625 -23.515625 C 25.890625 -23.148438 25.566406 -22.851562 24.921875 -22.625 C 24.273438 -22.394531 23.78125 -22.179688 23.4375 -21.984375 C 23.09375 -21.785156 22.773438 -21.503906 22.484375 -21.140625 C 21.878906 -20.398438 21.238281 -19.113281 20.5625 -17.28125 L 16.6875 -6.75 C 13.363281 2.3125 10.960938 7.765625 9.484375 9.609375 C 8.015625 11.472656 6.273438 12.40625 4.265625 12.40625 C 2.867188 12.40625 1.859375 12.210938 1.234375 11.828125 C 0.203125 11.179688 -0.3125 10.507812 -0.3125 9.8125 C -0.3125 9.332031 -0.140625 8.9375 0.203125 8.625 C 0.773438 8.09375 1.296875 7.828125 1.765625 7.828125 C 2.242188 7.828125 2.660156 7.910156 3.015625 8.078125 C 3.378906 8.242188 3.726562 8.425781 4.0625 8.625 C 4.40625 8.820312 4.710938 9 4.984375 9.15625 C 5.265625 9.320312 5.515625 9.40625 5.734375 9.40625 C 5.960938 9.40625 6.203125 9.382812 6.453125 9.34375 C 6.703125 9.3125 6.972656 9.195312 7.265625 9 C 7.554688 8.800781 7.875 8.492188 8.21875 8.078125 C 8.5625 7.671875 8.941406 7.097656 9.359375 6.359375 C 10.265625 4.679688 11.285156 2.320312 12.421875 -0.71875 C 11.679688 -1.269531 10.515625 -3.257812 8.921875 -6.6875 L 3.203125 -19.296875 C 2.679688 -20.421875 2.285156 -21.140625 2.015625 -21.453125 C 1.566406 -22.015625 0.96875 -22.382812 0.21875 -22.5625 C -0.53125 -22.75 -0.90625 -23.078125 -0.90625 -23.546875 C -0.90625 -23.703125 -0.8125 -23.84375 -0.625 -23.96875 C -0.445312 -24.09375 -0.1875 -24.15625 0.15625 -24.15625 L 4.15625 -23.875 C 5.207031 -23.875 6 -23.910156 6.53125 -23.984375 C 7.445312 -24.097656 8.195312 -24.15625 8.78125 -24.15625 C 9.957031 -24.15625 10.546875 -23.90625 10.546875 -23.40625 C 10.546875 -22.894531 9.851562 -22.601562 8.46875 -22.53125 C 7.59375 -22.476562 7.097656 -22.242188 6.984375 -21.828125 C 6.941406 -21.710938 6.921875 -21.585938 6.921875 -21.453125 C 6.921875 -21.222656 7.179688 -20.550781 7.703125 -19.4375 L 14 -5.1875 C 14.019531 -5.1875 14.03125 -5.203125 14.03125 -5.234375 C 14.03125 -5.273438 14.039062 -5.3125 14.0625 -5.34375 L 18.453125 -18.296875 C 18.710938 -19.066406 18.929688 -19.707031 19.109375 -20.21875 C 19.285156 -20.726562 19.375 -21.160156 19.375 -21.515625 C 19.375 -21.867188 19.253906 -22.113281 19.015625 -22.25 C 18.773438 -22.382812 18.3125 -22.476562 17.625 -22.53125 C 16.332031 -22.65625 15.6875 -22.957031 15.6875 -23.4375 C 15.6875 -23.914062 16.269531 -24.15625 17.4375 -24.15625 L 21.828125 -23.90625 Z M 24.828125 -24.15625 "/></g></g></g><g fill="#ecc8c7" fill-opacity="1"><g transform="translate(250.307618, 255.046126)"><g/></g></g><g fill="#ecc8c7" fill-opacity="1"><g transform="translate(263.871983, 255.046126)"><g><path d="M 35.34375 -27.15625 C 35.34375 -26.488281 35.113281 -26.15625 34.65625 -26.15625 C 34.238281 -26.15625 33.894531 -26.570312 33.625 -27.40625 C 33.363281 -28.238281 32.863281 -29.023438 32.125 -29.765625 C 31.382812 -30.503906 30.492188 -31.125 29.453125 -31.625 C 27.304688 -32.675781 24.992188 -33.203125 22.515625 -33.203125 C 20.046875 -33.203125 17.910156 -32.867188 16.109375 -32.203125 C 14.304688 -31.546875 12.757812 -30.597656 11.46875 -29.359375 C 8.78125 -26.722656 7.4375 -23.164062 7.4375 -18.6875 C 7.4375 -13.71875 8.953125 -9.625 11.984375 -6.40625 C 15.003906 -3.207031 18.863281 -1.609375 23.5625 -1.609375 C 28.800781 -1.609375 32.851562 -4.007812 35.71875 -8.8125 C 35.90625 -9.125 36.101562 -9.296875 36.3125 -9.328125 C 36.5 -9.328125 36.6875 -9.117188 36.875 -8.703125 C 37.0625 -8.296875 37.15625 -7.832031 37.15625 -7.3125 C 37.15625 -6.445312 36.421875 -5.328125 34.953125 -3.953125 C 33.492188 -2.578125 31.71875 -1.46875 29.625 -0.625 C 27.53125 0.21875 25.09375 0.640625 22.3125 0.640625 C 19.53125 0.640625 16.894531 0.191406 14.40625 -0.703125 C 11.914062 -1.609375 9.800781 -2.847656 8.0625 -4.421875 C 4.40625 -7.691406 2.578125 -11.78125 2.578125 -16.6875 C 2.578125 -22.238281 4.421875 -26.71875 8.109375 -30.125 C 11.796875 -33.550781 16.644531 -35.265625 22.65625 -35.265625 C 27 -35.265625 30.59375 -34.691406 33.4375 -33.546875 C 33.988281 -33.296875 34.347656 -33.0625 34.515625 -32.84375 C 34.867188 -32.363281 35.070312 -31.644531 35.125 -30.6875 C 35.1875 -29.726562 35.226562 -29.066406 35.25 -28.703125 C 35.3125 -27.859375 35.34375 -27.34375 35.34375 -27.15625 Z M 35.34375 -27.15625 "/></g></g></g><g fill="#ecc8c7" fill-opacity="1"><g transform="translate(302.317232, 255.046126)"><g><path d="M 25.640625 -3.46875 C 26.140625 -3.46875 26.390625 -3.238281 26.390625 -2.78125 C 26.390625 -2.320312 25.890625 -1.882812 24.890625 -1.46875 C 23.890625 -1.0625 23.191406 -0.6875 22.796875 -0.34375 C 22.398438 -0.0078125 22.101562 0.234375 21.90625 0.390625 C 21.71875 0.554688 21.492188 0.640625 21.234375 0.640625 C 20.722656 0.640625 20.296875 0.425781 19.953125 0 C 19.609375 -0.425781 19.140625 -1.347656 18.546875 -2.765625 C 17.566406 -1.640625 16.375 -0.789062 14.96875 -0.21875 C 13.570312 0.351562 12.179688 0.640625 10.796875 0.640625 C 8.203125 0.640625 6.1875 -0.0195312 4.75 -1.34375 C 3.320312 -2.664062 2.609375 -4.484375 2.609375 -6.796875 C 2.609375 -9.109375 3.6875 -10.984375 5.84375 -12.421875 C 8.007812 -13.859375 10.773438 -14.578125 14.140625 -14.578125 C 15.140625 -14.578125 16.457031 -14.40625 18.09375 -14.0625 L 18.09375 -16.078125 C 18.09375 -20.503906 16.222656 -22.71875 12.484375 -22.71875 C 10.503906 -22.71875 9.046875 -21.800781 8.109375 -19.96875 C 7.304688 -18.332031 6.515625 -17.515625 5.734375 -17.515625 C 5.171875 -17.515625 4.675781 -17.675781 4.25 -18 C 3.832031 -18.332031 3.625 -18.75 3.625 -19.25 C 3.625 -19.75 3.878906 -20.300781 4.390625 -20.90625 C 4.910156 -21.519531 5.597656 -22.078125 6.453125 -22.578125 C 8.492188 -23.773438 10.726562 -24.375 13.15625 -24.375 C 17.457031 -24.375 20.238281 -22.96875 21.5 -20.15625 C 21.96875 -19.15625 22.203125 -17.929688 22.203125 -16.484375 L 22.203125 -6.171875 C 22.203125 -4.847656 22.328125 -3.992188 22.578125 -3.609375 C 22.835938 -3.234375 23.203125 -3.046875 23.671875 -3.046875 C 24.140625 -3.046875 24.519531 -3.113281 24.8125 -3.25 C 25.101562 -3.394531 25.378906 -3.46875 25.640625 -3.46875 Z M 18.09375 -11.65625 C 16.851562 -12.363281 15.285156 -12.71875 13.390625 -12.71875 C 11.492188 -12.71875 9.972656 -12.242188 8.828125 -11.296875 C 7.679688 -10.347656 7.109375 -9.078125 7.109375 -7.484375 C 7.109375 -5.890625 7.546875 -4.5625 8.421875 -3.5 C 9.296875 -2.4375 10.425781 -1.90625 11.8125 -1.90625 C 14.757812 -1.90625 16.878906 -2.875 18.171875 -4.8125 C 18.117188 -5.289062 18.09375 -5.820312 18.09375 -6.40625 Z M 18.09375 -11.65625 "/></g></g></g><g fill="#ecc8c7" fill-opacity="1"><g transform="translate(329.006722, 255.046126)"><g><path d="M 3.015625 0.390625 C 1.867188 0.390625 1.296875 0.0703125 1.296875 -0.5625 C 1.296875 -1.0625 1.613281 -1.3125 2.25 -1.3125 L 3.546875 -1.1875 C 3.941406 -1.1875 4.265625 -1.257812 4.515625 -1.40625 C 4.773438 -1.550781 4.972656 -1.863281 5.109375 -2.34375 C 5.390625 -3.226562 5.53125 -5.175781 5.53125 -8.1875 L 5.53125 -15.921875 C 5.53125 -17.671875 5.421875 -18.765625 5.203125 -19.203125 C 4.992188 -19.648438 4.738281 -19.953125 4.4375 -20.109375 C 4.132812 -20.273438 3.640625 -20.410156 2.953125 -20.515625 C 2.273438 -20.617188 1.9375 -20.882812 1.9375 -21.3125 C 1.9375 -21.707031 2.375 -21.992188 3.25 -22.171875 C 5.300781 -22.597656 6.71875 -23.03125 7.5 -23.46875 C 8.539062 -24.070312 9.253906 -24.375 9.640625 -24.375 C 10.035156 -24.375 10.234375 -24.175781 10.234375 -23.78125 C 10.234375 -23.582031 10.191406 -23.378906 10.109375 -23.171875 C 10.035156 -22.972656 9.957031 -22.726562 9.875 -22.4375 C 9.738281 -21.84375 9.632812 -20.738281 9.5625 -19.125 C 11.0625 -21.632812 12.867188 -23.203125 14.984375 -23.828125 C 15.609375 -24.015625 16.300781 -24.109375 17.0625 -24.109375 C 17.832031 -24.109375 18.515625 -23.832031 19.109375 -23.28125 C 19.703125 -22.726562 20 -22.140625 20 -21.515625 C 20 -20.898438 19.929688 -20.445312 19.796875 -20.15625 C 19.660156 -19.863281 19.488281 -19.613281 19.28125 -19.40625 C 18.832031 -18.957031 18.429688 -18.734375 18.078125 -18.734375 C 17.722656 -18.734375 17.453125 -18.820312 17.265625 -19 C 17.078125 -19.1875 16.859375 -19.519531 16.609375 -20 C 16.179688 -20.863281 15.703125 -21.296875 15.171875 -21.296875 C 14.640625 -21.296875 14.128906 -21.175781 13.640625 -20.9375 C 13.160156 -20.707031 12.679688 -20.359375 12.203125 -19.890625 C 11.148438 -18.910156 10.257812 -17.578125 9.53125 -15.890625 L 9.53125 -8.1875 C 9.53125 -4.914062 9.617188 -2.988281 9.796875 -2.40625 C 9.984375 -1.832031 10.207031 -1.488281 10.46875 -1.375 C 10.738281 -1.269531 11.109375 -1.21875 11.578125 -1.21875 L 13.875 -1.421875 C 14.21875 -1.421875 14.492188 -1.335938 14.703125 -1.171875 C 14.910156 -1.015625 15.015625 -0.8125 15.015625 -0.5625 C 15.015625 0.0703125 14.382812 0.390625 13.125 0.390625 L 7.671875 0 C 6.796875 0 5.960938 0.0625 5.171875 0.1875 C 4.390625 0.320312 3.671875 0.390625 3.015625 0.390625 Z M 3.015625 0.390625 "/></g></g></g><g fill="#ecc8c7" fill-opacity="1"><g transform="translate(349.495366, 255.046126)"><g><path d="M 5.234375 -2.90625 C 4.222656 -4.019531 3.445312 -5.332031 2.90625 -6.84375 C 2.363281 -8.363281 2.09375 -10.046875 2.09375 -11.890625 C 2.09375 -13.742188 2.410156 -15.445312 3.046875 -17 C 3.679688 -18.550781 4.5625 -19.878906 5.6875 -20.984375 C 8.007812 -23.273438 10.878906 -24.421875 14.296875 -24.421875 C 17.117188 -24.421875 19.398438 -23.488281 21.140625 -21.625 C 22.796875 -19.832031 23.625 -17.617188 23.625 -14.984375 C 23.625 -14.128906 23.503906 -13.539062 23.265625 -13.21875 C 23.035156 -12.894531 22.75 -12.703125 22.40625 -12.640625 C 22.0625 -12.585938 21.585938 -12.535156 20.984375 -12.484375 C 20.378906 -12.441406 19.644531 -12.394531 18.78125 -12.34375 C 17.925781 -12.300781 16.96875 -12.253906 15.90625 -12.203125 C 14.84375 -12.148438 13.757812 -12.085938 12.65625 -12.015625 C 10.125 -11.859375 8.09375 -11.703125 6.5625 -11.546875 C 6.9375 -6.910156 8.710938 -3.90625 11.890625 -2.53125 C 12.921875 -2.082031 14.019531 -1.859375 15.1875 -1.859375 C 17.675781 -1.859375 19.644531 -2.582031 21.09375 -4.03125 C 21.707031 -4.65625 22.175781 -4.96875 22.5 -4.96875 C 23.125 -4.96875 23.4375 -4.59375 23.4375 -3.84375 C 23.4375 -3.46875 23.175781 -3.007812 22.65625 -2.46875 C 22.144531 -1.9375 21.40625 -1.390625 20.4375 -0.828125 C 18.726562 0.148438 16.738281 0.640625 14.46875 0.640625 C 12.195312 0.640625 10.34375 0.328125 8.90625 -0.296875 C 7.46875 -0.921875 6.242188 -1.789062 5.234375 -2.90625 Z M 6.515625 -13.46875 C 14.585938 -13.875 18.84375 -14.3125 19.28125 -14.78125 C 19.4375 -14.957031 19.515625 -15.46875 19.515625 -16.3125 C 19.515625 -17.15625 19.347656 -17.972656 19.015625 -18.765625 C 18.691406 -19.566406 18.253906 -20.253906 17.703125 -20.828125 C 16.566406 -21.984375 15.15625 -22.5625 13.46875 -22.5625 C 11.550781 -22.5625 9.9375 -21.757812 8.625 -20.15625 C 7.25 -18.488281 6.546875 -16.257812 6.515625 -13.46875 Z M 6.515625 -13.46875 "/></g></g></g></svg>